<?xml version="1.0" standalone="no"?>
<!DOCTYPE svg PUBLIC "-//W3C//DTD SVG 20010904//EN"
 "http://www.w3.org/TR/2001/REC-SVG-20010904/DTD/svg10.dtd">
<svg version="1.0" xmlns="http://www.w3.org/2000/svg"
 width="400.000000pt" height="400.000000pt" viewBox="0 0 400.000000 400.000000"
 preserveAspectRatio="xMidYMid meet">
<metadata>
Created by potrace 1.11, written by Peter Selinger 2001-2013
</metadata>
<g transform="translate(0.000000,400.000000) scale(0.100000,-0.100000)"
fill="#000000" stroke="none">
<path d="M490 3750 c-9 -5 -28 -7 -43 -6 -19 2 -31 -3 -38 -16 -5 -10 -15 -16
-20 -12 -13 8 -70 -16 -64 -26 3 -4 -3 -7 -13 -6 -9 0 -16 -5 -15 -11 2 -7 -3
-12 -10 -10 -6 1 -11 -5 -9 -13 3 -11 1 -12 -8 -3 -10 9 -19 4 -41 -20 -51
-57 -59 -67 -52 -67 4 0 -2 -7 -13 -15 -10 -8 -15 -15 -9 -15 5 0 0 -7 -12
-15 -14 -10 -20 -24 -18 -40 1 -14 0 -23 -3 -20 -3 2 -11 -7 -19 -21 -15 -31
-16 -37 -4 -30 11 7 8 -21 -4 -31 -4 -5 -5 -1 0 7 5 8 4 12 0 7 -12 -10 -15
-38 -4 -31 5 3 9 0 9 -5 0 -6 -6 -11 -12 -11 -9 0 -8 -4 2 -10 13 -9 13 -10 0
-10 -12 0 -12 -2 -2 -9 11 -7 11 -9 -1 -14 -10 -4 -13 -13 -10 -27 5 -17 8
-19 15 -8 6 8 7 4 2 -12 -8 -26 -8 -29 -1 -73 3 -20 1 -27 -9 -23 -8 3 -11 0
-7 -9 3 -8 8 -13 12 -11 4 3 7 -4 7 -14 0 -10 -3 -17 -7 -14 -4 2 -9 -3 -13
-11 -3 -8 -1 -17 4 -20 15 -9 12 -37 -2 -29 -7 4 -5 -1 4 -11 16 -17 16 -19 1
-30 -13 -10 -13 -14 -3 -20 9 -6 11 -4 5 5 -5 9 -4 11 3 6 9 -5 9 -13 2 -26
-7 -13 -6 -20 3 -23 7 -3 4 -6 -6 -6 -17 -1 -17 -2 -1 -18 10 -10 12 -19 6
-21 -6 -2 -9 -9 -7 -15 10 -28 13 -67 5 -62 -11 7 -18 -15 -12 -38 4 -15 7
-16 14 -5 6 8 7 4 2 -12 -8 -26 -8 -29 -1 -73 3 -20 1 -27 -9 -23 -8 3 -11 0
-7 -9 3 -8 8 -13 12 -11 4 3 7 -4 7 -14 0 -10 -3 -17 -7 -14 -4 2 -9 -3 -13
-11 -3 -8 -1 -17 4 -20 15 -9 12 -37 -2 -29 -7 4 -5 -1 4 -11 16 -17 16 -19 1
-30 -13 -10 -13 -14 -3 -20 9 -6 11 -4 5 5 -5 9 -4 11 3 6 9 -5 9 -13 2 -26
-7 -13 -6 -20 3 -23 7 -3 4 -6 -6 -6 -17 -1 -17 -2 -1 -18 10 -10 12 -19 6
-21 -6 -2 -9 -9 -7 -15 10 -28 13 -67 5 -62 -11 7 -18 -15 -12 -38 4 -15 7
-16 14 -5 6 8 7 4 2 -12 -8 -26 -8 -29 -1 -73 3 -20 1 -27 -9 -23 -8 3 -11 0
-7 -9 3 -8 8 -13 12 -11 4 3 7 -4 7 -14 0 -10 -3 -17 -7 -14 -4 2 -9 -3 -13
-11 -3 -8 -1 -17 4 -20 15 -9 12 -37 -2 -29 -7 4 -5 -1 4 -11 16 -17 16 -19 1
-30 -13 -10 -13 -14 -3 -20 9 -6 11 -4 5 5 -5 9 -4 11 3 6 9 -5 9 -13 2 -26
-7 -13 -6 -20 3 -23 7 -3 4 -6 -6 -6 -17 -1 -17 -2 -1 -18 10 -10 12 -19 6
-21 -6 -2 -9 -9 -7 -15 10 -28 13 -67 5 -62 -11 7 -18 -15 -12 -38 4 -15 7
-16 14 -5 6 8 7 4 2 -12 -8 -26 -8 -29 -1 -73 3 -20 1 -27 -9 -23 -8 3 -11 0
-7 -9 3 -8 8 -13 12 -11 4 3 7 -4 7 -14 0 -10 -3 -17 -7 -14 -4 2 -9 -3 -13
-11 -3 -8 -1 -17 4 -20 15 -9 12 -37 -2 -29 -7 4 -5 -1 4 -11 16 -17 16 -19 1
-30 -13 -10 -13 -14 -3 -20 9 -6 11 -4 5 5 -5 9 -4 11 3 6 9 -5 9 -13 2 -26
-7 -13 -6 -20 3 -23 7 -3 4 -6 -6 -6 -17 -1 -17 -2 -1 -18 10 -10 12 -19 6
-21 -6 -2 -9 -9 -7 -15 10 -28 13 -67 5 -62 -11 7 -18 -15 -12 -38 4 -15 7
-16 14 -5 6 8 7 4 2 -12 -8 -26 -8 -29 -1 -73 3 -20 1 -27 -9 -23 -8 3 -11 0
-7 -9 3 -8 8 -13 12 -11 4 3 7 -4 7 -14 0 -10 -3 -17 -7 -14 -4 2 -9 -3 -13
-11 -3 -8 -1 -17 4 -20 15 -9 12 -37 -2 -29 -7 4 -5 -1 4 -11 16 -17 16 -19 1
-30 -13 -10 -13 -14 -3 -20 9 -6 11 -4 5 5 -5 9 -4 11 3 6 9 -5 9 -13 2 -26
-7 -13 -6 -20 3 -23 7 -3 4 -6 -6 -6 -17 -1 -17 -2 -1 -18 9 -9 12 -19 7 -20
-6 -2 -7 -19 -3 -43 4 -22 4 -37 0 -35 -5 3 -10 -2 -14 -10 -7 -18 3 -47 14
-40 4 2 5 -7 2 -20 -2 -14 1 -31 7 -39 9 -11 9 -16 0 -22 -8 -5 -9 -3 -4 6 5
9 4 11 -4 6 -8 -6 -9 -12 -2 -20 6 -7 8 -16 4 -19 -3 -4 -1 -7 6 -7 7 0 11 -6
8 -14 -3 -8 3 -24 13 -36 11 -13 17 -26 15 -30 -3 -5 0 -10 5 -12 6 -2 12 -10
14 -18 6 -30 18 -49 35 -55 9 -2 21 -15 26 -27 6 -13 18 -22 27 -22 10 1 15
-2 12 -7 -3 -5 5 -9 18 -9 18 0 20 -2 8 -10 -12 -8 -10 -10 8 -10 13 0 21 -4
17 -9 -5 -9 27 -25 52 -26 7 0 20 -9 28 -20 9 -11 14 -15 11 -9 -3 7 1 15 10
18 8 3 13 2 10 -3 -3 -5 1 -14 8 -20 10 -8 16 -9 21 -1 3 5 11 10 17 10 6 0 6
-6 -2 -15 -11 -13 -10 -14 5 -9 14 6 16 4 10 -6 -6 -9 -4 -11 4 -6 7 5 10 14
8 20 -3 7 1 13 9 13 8 0 13 -6 10 -13 -3 -8 2 -10 16 -6 16 4 19 2 13 -8 -5
-9 -4 -11 3 -6 7 4 12 14 12 22 0 8 4 13 10 9 5 -3 7 -13 4 -23 -5 -13 -4 -14
4 -3 6 8 17 11 27 7 13 -5 16 -2 11 11 -5 15 -4 15 9 -1 8 -11 15 -14 15 -7 0
7 5 9 10 6 6 -4 18 -1 27 7 14 11 16 11 8 -1 -6 -11 -4 -13 8 -8 12 4 15 2 11
-11 -5 -13 -4 -14 4 -3 7 9 11 10 17 2 5 -9 10 -9 21 0 11 9 14 8 14 -2 0 -11
2 -11 10 1 5 8 10 11 10 5 0 -5 5 -3 10 5 7 11 10 11 10 2 0 -7 5 -10 10 -7 6
4 7 11 4 17 -4 7 0 7 13 0 11 -6 35 -9 54 -8 20 2 41 -3 52 -12 16 -14 17 -14
12 0 -4 9 -1 19 6 24 8 4 10 3 5 -4 -4 -7 -2 -12 4 -12 6 0 8 -4 5 -10 -10
-16 1 -11 16 7 12 14 12 16 0 8 -9 -5 -12 -4 -7 3 4 7 14 7 32 -3 18 -9 34
-11 50 -4 13 4 24 6 24 3 0 -4 6 -2 13 5 8 6 17 7 23 2 5 -5 30 -11 57 -13 39
-3 46 0 42 12 -4 11 -2 11 8 -2 12 -15 14 -15 25 0 7 9 10 11 7 4 -4 -7 0 -12
9 -12 9 0 16 5 16 10 0 6 4 10 8 10 5 0 9 -7 9 -15 0 -8 -4 -12 -9 -9 -4 3 -8
0 -8 -5 0 -17 20 -13 27 6 6 15 7 15 14 -3 7 -17 8 -17 8 -1 1 16 3 16 30 2
22 -11 32 -12 37 -3 4 6 3 8 -4 4 -6 -3 -13 -2 -16 3 -9 13 38 8 47 -6 9 -15
40 -5 30 10 -3 6 -1 7 5 3 7 -4 12 -1 12 6 0 9 3 9 10 -2 5 -8 10 -11 10 -5 0
5 5 4 11 -2 7 -7 20 -8 33 -4 11 5 29 7 39 6 9 -2 17 2 17 8 0 8 3 7 9 -1 4
-8 24 -14 44 -15 20 -2 39 -6 43 -10 4 -4 13 -2 21 4 10 9 13 8 13 -2 0 -11 2
-11 10 1 5 8 10 11 10 5 0 -5 5 -3 10 5 7 11 10 11 10 2 0 -7 5 -10 10 -7 6 4
7 11 4 17 -4 7 0 7 13 0 11 -6 35 -9 54 -8 20 2 41 -3 52 -12 16 -14 17 -14
12 0 -4 9 -1 19 6 24 8 4 10 3 5 -4 -4 -7 -2 -12 4 -12 6 0 8 -4 5 -10 -10
-16 1 -11 16 7 12 14 12 16 0 8 -9 -5 -12 -4 -7 3 4 7 14 7 32 -3 18 -9 34
-11 50 -4 13 4 24 6 24 3 0 -4 6 -2 13 5 8 6 17 7 23 2 5 -5 30 -11 57 -13 39
-3 46 0 42 12 -4 11 -2 11 8 -2 12 -15 14 -15 25 0 7 9 10 11 7 5 -4 -8 0 -13
9 -13 9 0 16 5 16 10 0 6 4 10 8 10 5 0 9 -7 9 -15 0 -8 -4 -12 -9 -9 -4 3 -8
0 -8 -5 0 -17 20 -13 27 6 6 15 7 15 14 -3 7 -17 8 -17 8 -1 1 16 3 16 30 2
22 -11 32 -12 37 -3 4 6 3 8 -4 4 -6 -3 -13 -2 -16 3 -9 13 38 8 47 -6 9 -15
40 -5 30 10 -3 6 -1 7 5 3 7 -4 12 -1 12 6 0 9 3 9 10 -2 5 -8 10 -11 10 -5 0
5 5 4 11 -2 7 -7 20 -8 33 -4 11 4 28 7 36 6 8 0 19 4 23 10 5 6 7 3 3 -7 -7
-24 9 -31 25 -11 12 14 12 16 0 8 -9 -5 -12 -4 -7 3 4 7 14 7 32 -3 18 -9 34
-11 50 -4 13 4 24 6 24 3 0 -4 6 -2 13 5 8 6 17 7 23 2 5 -5 30 -11 57 -13 39
-3 46 0 42 12 -4 11 -2 11 8 -2 12 -15 14 -15 25 0 7 9 10 11 7 5 -4 -8 0 -13
9 -13 9 0 16 5 16 10 0 6 4 10 8 10 5 0 9 -7 9 -15 0 -8 -4 -12 -9 -9 -4 3 -8
0 -8 -5 0 -17 20 -13 27 6 6 15 7 15 14 -3 7 -17 8 -17 8 -1 1 16 3 16 30 2
22 -11 32 -12 37 -3 4 6 3 8 -4 4 -6 -3 -13 -2 -16 3 -9 13 38 8 47 -6 9 -15
40 -5 30 10 -3 6 -1 7 5 3 7 -4 12 -1 12 6 0 9 3 9 10 -2 5 -8 10 -11 10 -5 0
5 5 4 11 -2 7 -7 20 -8 33 -4 11 4 28 7 36 6 8 0 19 4 23 10 5 6 7 3 3 -7 -3
-10 0 -20 7 -24 7 -4 9 -4 5 1 -4 4 -3 14 3 22 9 10 15 10 25 2 8 -6 14 -9 14
-5 0 3 12 1 26 -4 14 -6 23 -6 20 -1 -9 13 22 7 36 -7 7 -7 17 -12 22 -12 6 0
4 5 -4 10 -13 8 -13 11 -1 22 11 11 13 11 6 -1 -6 -11 -4 -13 9 -8 9 4 15 3
12 -2 -3 -5 1 -11 9 -14 10 -4 12 -1 8 11 -5 14 -3 15 7 5 11 -10 16 -9 27 5
8 9 12 11 8 5 -4 -9 2 -13 20 -13 17 0 24 -4 19 -12 -4 -7 -3 -8 5 -4 7 5 9
13 4 20 -4 7 0 3 10 -7 9 -11 17 -14 17 -8 0 7 5 9 12 5 7 -4 8 -3 4 5 -4 6
-12 8 -18 5 -7 -4 -8 -2 -4 4 5 8 13 9 25 3 22 -12 54 -8 59 8 3 9 7 9 17 1 9
-8 15 -8 20 0 3 6 11 7 17 4 7 -4 8 -2 4 4 -4 7 -1 12 9 12 10 0 13 5 9 13 -5
7 -2 7 10 -2 15 -12 17 -12 14 0 -2 8 3 13 11 11 9 -2 12 4 8 18 -5 21 -5 21
16 4 12 -11 19 -15 16 -11 -6 7 35 57 47 57 10 0 49 42 49 53 1 7 -4 16 -10
20 -6 5 -2 6 8 3 14 -4 20 0 24 15 3 12 11 18 20 15 10 -4 11 -1 3 14 -7 13
-7 21 0 25 6 4 7 12 3 18 -4 7 2 5 12 -3 17 -14 18 -14 7 6 -9 17 -9 24 2 33
9 7 13 31 12 66 0 30 2 55 6 55 3 0 4 10 0 22 -4 16 -2 19 9 13 12 -7 12 -6 1
7 -13 16 -12 44 2 67 7 11 5 13 -5 9 -11 -4 -14 1 -13 21 1 14 6 35 10 45 5
14 4 17 -4 12 -7 -4 -12 -2 -12 3 0 6 8 11 18 11 16 1 16 1 -1 11 -17 10 -17
12 -1 36 13 20 13 25 2 21 -15 -6 -17 30 -2 66 5 14 4 17 -4 12 -7 -4 -12 -2
-12 3 0 6 8 11 18 11 16 1 16 1 -1 11 -17 10 -17 12 -1 36 13 20 13 25 2 21
-15 -6 -17 30 -2 66 5 14 4 17 -4 12 -7 -4 -12 -2 -12 3 0 6 8 11 18 11 16 1
16 1 -1 11 -17 10 -17 12 -2 36 10 14 13 23 7 19 -17 -10 -22 23 -6 39 9 8 11
15 5 15 -6 0 -11 7 -11 16 0 9 5 12 13 8 6 -4 4 1 -5 11 -16 17 -16 19 0 32 9
8 11 11 3 7 -9 -4 -12 -2 -9 7 3 8 1 26 -3 42 -4 15 -4 25 1 22 5 -3 11 -1 15
5 3 5 -2 10 -11 10 -16 0 -16 1 2 16 10 8 14 13 8 10 -7 -3 -14 0 -16 7 -7 18
2 38 14 31 5 -3 4 3 -3 14 -10 17 -10 23 1 37 7 9 9 15 4 14 -23 -4 -26 2 -8
17 10 8 13 12 5 8 -9 -4 -12 -2 -9 7 3 8 1 26 -3 42 -4 15 -4 25 1 22 5 -3 11
-1 15 5 3 5 -2 10 -11 10 -16 0 -16 1 2 16 10 8 14 13 8 10 -19 -9 -25 22 -8
39 9 8 11 15 5 15 -6 0 -11 7 -11 16 0 9 5 12 13 8 6 -4 4 1 -5 11 -16 17 -16
19 0 32 9 8 11 11 3 7 -9 -4 -12 -2 -9 7 3 8 1 26 -3 42 -4 15 -4 25 1 22 5
-3 11 -1 15 5 3 5 -2 10 -11 10 -16 0 -16 1 2 16 10 8 14 13 8 10 -7 -3 -14 0
-16 7 -7 18 2 38 14 31 5 -3 4 3 -3 14 -10 17 -10 23 1 37 7 9 9 15 4 14 -23
-4 -26 2 -8 17 10 8 13 12 5 8 -9 -4 -12 -2 -9 7 3 8 1 26 -3 42 -4 15 -4 25
1 22 5 -3 11 -1 15 5 3 5 -2 10 -11 10 -16 0 -16 1 2 16 10 8 14 13 8 10 -19
-9 -25 22 -8 39 9 8 11 15 5 15 -6 0 -11 7 -11 16 0 9 5 12 13 8 6 -4 4 1 -5
11 -16 17 -16 19 0 32 9 8 11 11 3 7 -9 -4 -12 -2 -9 7 3 8 1 26 -3 42 -4 15
-4 25 1 22 5 -3 11 -1 15 5 3 5 -2 10 -11 10 -16 0 -16 1 2 16 10 8 14 13 8
10 -7 -3 -14 0 -16 7 -7 18 2 38 14 31 5 -3 4 3 -3 14 -10 17 -10 23 1 37 7 9
9 15 4 14 -23 -4 -26 2 -8 17 10 8 13 12 5 8 -9 -4 -12 -2 -9 7 3 8 1 26 -3
42 -4 15 -4 25 1 22 5 -3 11 -1 15 5 3 5 -2 10 -11 10 -16 0 -16 1 2 16 10 8
14 13 8 10 -19 -9 -25 22 -8 39 9 8 11 15 5 15 -6 0 -11 7 -11 16 0 9 5 12 13
8 6 -4 4 1 -5 11 -16 17 -16 19 0 32 9 8 11 11 3 7 -9 -4 -12 -2 -9 7 3 8 1
26 -3 42 -4 15 -4 25 1 22 5 -3 11 -1 15 5 3 5 -2 10 -11 10 -16 0 -16 1 2 16
10 8 14 13 8 10 -7 -3 -14 0 -16 7 -7 18 2 38 14 31 5 -3 4 3 -3 14 -10 17
-10 23 0 36 16 19 1 22 -17 4 -7 -7 -12 -9 -12 -5 0 3 10 16 23 28 12 12 17
19 11 16 -7 -4 -12 13 -14 51 -5 105 -13 142 -31 142 -5 0 -8 3 -8 8 4 23 -4
41 -32 71 -19 21 -28 40 -24 49 3 9 3 13 -1 9 -11 -10 -35 13 -27 27 3 6 3 8
-2 4 -4 -4 -13 -2 -21 5 -40 36 -44 38 -44 25 -1 -7 -7 -2 -15 12 -7 14 -17
24 -22 24 -17 -3 -33 8 -26 19 3 5 1 7 -5 3 -6 -3 -14 -2 -17 4 -4 6 -15 8
-26 5 -13 -4 -19 -2 -19 9 0 20 -17 29 -26 15 -4 -8 -3 -9 4 -5 7 4 12 2 12
-3 0 -6 -7 -11 -15 -11 -8 0 -15 5 -15 10 0 6 -5 10 -11 10 -5 0 -7 -4 -4 -10
3 -6 -1 -7 -9 -4 -9 3 -13 11 -9 18 4 6 -1 5 -10 -3 -12 -9 -17 -10 -17 -2 0
7 -5 9 -12 4 -13 -8 -126 -5 -140 3 -4 3 -8 1 -8 -4 0 -10 -42 -8 -59 2 -5 3
-12 0 -14 -6 -4 -10 -6 -10 -6 0 -1 8 -6 10 -13 6 -18 -11 -48 -12 -48 -2 0 5
-5 6 -11 2 -16 -10 -149 -11 -149 -1 0 5 -5 5 -11 1 -15 -9 -153 -9 -168 0 -6
4 -11 1 -11 -6 0 -10 -2 -10 -9 1 -6 9 -10 10 -16 2 -5 -9 -10 -9 -21 0 -11 9
-14 8 -14 -2 0 -12 -2 -12 -9 0 -5 7 -11 9 -14 4 -3 -5 -33 -6 -66 -3 -34 3
-61 3 -61 0 0 -7 -66 -4 -79 5 -6 3 -11 0 -11 -7 0 -10 -2 -10 -9 1 -5 7 -11
9 -14 4 -3 -5 -33 -6 -66 -3 -34 3 -61 3 -61 0 0 -7 -66 -4 -78 4 -6 3 -13 0
-15 -6 -4 -10 -6 -10 -6 0 -1 8 -6 10 -13 6 -18 -11 -48 -12 -48 -2 0 5 -5 6
-11 2 -16 -10 -149 -11 -149 -1 0 5 -5 5 -11 1 -15 -9 -153 -9 -168 0 -6 4
-11 1 -11 -6 0 -10 -2 -10 -9 1 -6 9 -10 10 -16 2 -5 -9 -10 -9 -21 0 -11 9
-14 8 -14 -2 0 -12 -2 -12 -9 0 -5 7 -11 9 -14 4 -3 -5 -33 -6 -66 -3 -34 3
-61 3 -61 0 0 -7 -66 -4 -79 5 -6 3 -11 0 -11 -7 0 -10 -2 -10 -9 1 -5 7 -11
9 -14 4 -3 -5 -33 -6 -66 -3 -34 3 -61 3 -61 0 0 -7 -66 -4 -78 4 -6 3 -13 0
-15 -6 -4 -10 -6 -10 -6 0 -1 8 -6 10 -13 6 -18 -11 -48 -12 -48 -2 0 5 -5 6
-11 2 -16 -10 -149 -11 -149 -1 0 5 -5 5 -11 1 -15 -9 -153 -9 -168 0 -6 4
-11 1 -11 -6 0 -10 -2 -10 -9 1 -6 9 -10 10 -16 2 -5 -9 -10 -9 -21 0 -11 9
-14 8 -14 -2 0 -12 -2 -12 -9 0 -5 7 -11 9 -14 4 -3 -5 -33 -6 -66 -3 -34 3
-61 3 -61 0 0 -7 -66 -4 -78 4 -6 3 -13 0 -15 -6 -4 -10 -6 -10 -6 0 -1 7 -6
10 -12 6 -16 -9 -99 -11 -93 -2 6 10 3 10 -16 -2z m-390 -2870 c0 -5 -4 -10
-10 -10 -5 0 -10 5 -10 10 0 6 5 10 10 10 6 0 10 -4 10 -10z m87 -277 c0 -9
-4 -10 -14 -2 -7 6 -13 12 -13 14 0 1 6 2 13 2 8 0 14 -6 14 -14z m3628 -23
c-3 -5 -12 -10 -18 -10 -7 0 -6 4 3 10 19 12 23 12 15 0z m-3052 -163 c-2 -4
-8 -5 -13 -2 -5 3 -11 1 -15 -5 -4 -6 -11 -8 -16 -5 -18 12 -8 23 20 21 16 0
27 -4 24 -9z m664 -9 c-3 -8 -6 -5 -6 6 -1 11 2 17 5 13 3 -3 4 -12 1 -19z
m296 9 c-2 -4 -8 -5 -13 -2 -5 3 -11 1 -15 -5 -4 -6 -11 -8 -16 -5 -18 12 -8
23 20 21 16 0 27 -4 24 -9z m664 -9 c-3 -8 -6 -5 -6 6 -1 11 2 17 5 13 3 -3 4
-12 1 -19z m640 0 c-3 -8 -6 -5 -6 6 -1 11 2 17 5 13 3 -3 4 -12 1 -19z"/>
<path d="M3780 520 c8 -5 20 -10 25 -10 6 0 3 5 -5 10 -8 5 -19 10 -25 10 -5
0 -3 -5 5 -10z"/>
<path d="M356 433 c-6 -14 -5 -15 5 -6 7 7 10 15 7 18 -3 3 -9 -2 -12 -12z"/>
<path d="M1085 409 c-4 -6 -4 -13 -1 -16 3 -4 6 -1 6 7 0 10 4 10 18 -1 15
-13 16 -12 3 4 -16 20 -18 20 -26 6z"/>
<path d="M2045 409 c-4 -6 -4 -13 -1 -16 3 -4 6 -1 6 7 0 10 4 10 18 -1 15
-13 16 -12 3 4 -16 20 -18 20 -26 6z"/>
<path d="M2685 409 c-4 -6 -4 -13 -1 -16 3 -4 6 -1 6 7 0 10 4 10 18 -1 15
-13 16 -12 3 4 -16 20 -18 20 -26 6z"/>
<path d="M3210 405 c0 -8 4 -15 10 -15 5 0 7 7 4 15 -4 8 -8 15 -10 15 -2 0
-4 -7 -4 -15z"/>
<path d="M1466 398 c3 -5 10 -6 15 -3 13 9 11 12 -6 12 -8 0 -12 -4 -9 -9z"/>
<path d="M2426 398 c3 -5 10 -6 15 -3 13 9 11 12 -6 12 -8 0 -12 -4 -9 -9z"/>
<path d="M3066 398 c3 -5 10 -6 15 -3 13 9 11 12 -6 12 -8 0 -12 -4 -9 -9z"/>
<path d="M1235 391 c-3 -5 -2 -12 3 -15 5 -3 9 1 9 9 0 17 -3 19 -12 6z"/>
<path d="M2195 391 c-3 -5 -2 -12 3 -15 5 -3 9 1 9 9 0 17 -3 19 -12 6z"/>
<path d="M2835 391 c-3 -5 -2 -12 3 -15 5 -3 9 1 9 9 0 17 -3 19 -12 6z"/>
<path d="M1490 386 c0 -2 7 -7 16 -10 8 -3 12 -2 9 4 -6 10 -25 14 -25 6z"/>
<path d="M2450 386 c0 -2 7 -7 16 -10 8 -3 12 -2 9 4 -6 10 -25 14 -25 6z"/>
<path d="M3090 386 c0 -2 7 -7 16 -10 8 -3 12 -2 9 4 -6 10 -25 14 -25 6z"/>
<path d="M1195 371 c-3 -5 -2 -12 3 -15 5 -3 9 1 9 9 0 17 -3 19 -12 6z"/>
<path d="M2155 371 c-3 -5 -2 -12 3 -15 5 -3 9 1 9 9 0 17 -3 19 -12 6z"/>
<path d="M2795 371 c-3 -5 -2 -12 3 -15 5 -3 9 1 9 9 0 17 -3 19 -12 6z"/>
<path d="M720 326 c0 -2 8 -10 18 -17 15 -13 16 -12 3 4 -13 16 -21 21 -21 13z"/>
<path d="M806 318 c3 -5 10 -6 15 -3 13 9 11 12 -6 12 -8 0 -12 -4 -9 -9z"/>
<path d="M1766 318 c3 -5 10 -6 15 -3 13 9 11 12 -6 12 -8 0 -12 -4 -9 -9z"/>
</g>
</svg>
